<svg id="Logo" xmlns="http://www.w3.org/2000/svg" viewBox="0 0 361.68 74.48"><defs><style>.cls-1{font-size:64px;fill:#fff;font-family:Bogle-Bold, Bogle;font-weight:700;letter-spacing:-0.02em;}.cls-2{letter-spacing:-0.01em;}.cls-3{fill:#ffc224;}</style></defs><text x="-4.11" y="-16.7"/><text class="cls-1" transform="translate(0 54.89)">G<tspan class="cls-2" x="44.67" y="0">ualmarsh</tspan></text><path class="cls-3" d="M342.63,16.91c-.49.49-.21,1,1.35,2.63a28.32,28.32,0,0,1,7.65,14.87,35.53,35.53,0,0,1,0,9.77,28.12,28.12,0,0,1-7.91,15.07,27.64,27.64,0,0,1-15.15,7.89,37.8,37.8,0,0,1-9.13.1,27.46,27.46,0,0,1-15.21-7.54c-1.9-1.84-2.47-2.11-3-1.34s2.31,6.21,4.72,9.55a43.77,43.77,0,0,0,7.48,7.26,33.16,33.16,0,0,0,51.89-21.78A31.68,31.68,0,0,0,364,37.69a33.2,33.2,0,0,0-19.12-20.33C343.09,16.59,343,16.57,342.63,16.91Zm5.74,3.93A31.54,31.54,0,1,1,310.88,71a34.66,34.66,0,0,1-5.8-7.45l-.81-1.5.37,1.92c4.81,10,19.22,17,26.49,16.41,4.37-.36,11.5-.94,15.28-2.9,12.44-6.43,21.25-20.52,17.86-34-1-4.1-3-17.66-16.8-23.65C347.24,19.55,347.46,20.33,348.37,20.84Z" transform="translate(-4.11 -16.7)"/></svg>